<?xml version="1.0" encoding="UTF-8"?>
<svg width="16px" height="22px" viewBox="0 0 16 22" version="1.1" xmlns="http://www.w3.org/2000/svg" xmlns:xlink="http://www.w3.org/1999/xlink">
    <!-- Generator: Sketch 57.1 (83088) - https://sketch.com -->
    <title>discover-icon</title>
    <desc>Created with Sketch.</desc>
    <g id="Page-1" stroke="none" stroke-width="1" fill="none" fill-rule="evenodd">
        <g id="Artboard" transform="translate(-39.000000, -306.000000)" fill="#FFFFFF">
            <g id="icons/tools/ibm-user-link-copy-2" transform="translate(39.000000, 306.000000)">
                <path d="M4.25,17 L11.75,17 L11.75,18.5 L4.25,18.5 L4.25,17 Z M5.75,20 L10.25,20 L10.25,21.5 L5.75,21.5 L5.75,20 Z M8,0.5 C3.85786438,0.5 0.5,3.85786438 0.5,8 L0.5,8 C0.395771289,10.2071906 1.36188284,12.3292853 3.095,13.7 C3.845,14.3975 4.25,14.8025 4.25,15.485 L5.75,15.485 C5.75,14.105 4.9175,13.3325 4.1075,12.59 C2.68335121,11.5073197 1.8928947,9.78575608 2,8 L2,8 C2,4.6862915 4.6862915,2 8,2 C11.3137085,2 14,4.6862915 14,8 L14,8 C14.1075014,9.78414226 13.3202575,11.5048324 11.9,12.59 C11.0975,13.34 10.265,14.09 10.265,15.485 L11.765,15.485 C11.765,14.795 12.1625,14.3975 12.92,13.6925 C14.6442892,12.3194512 15.6041012,10.2017264 15.5,8 L15.5,8 C15.5,6.01087633 14.7098237,4.10322198 13.3033009,2.69669914 C11.896778,1.2901763 9.98912367,0.5 8,0.5 Z" id="discover-icon"></path>
            </g>
        </g>
    </g>
</svg>