<?xml version="1.0" encoding="UTF-8"?>
<svg width="8px" height="8px" viewBox="0 0 8 8" version="1.1" xmlns="http://www.w3.org/2000/svg" xmlns:xlink="http://www.w3.org/1999/xlink">
    <!-- Generator: Sketch 57.1 (83088) - https://sketch.com -->
    <title>exclude-icon</title>
    <desc>Created with Sketch.</desc>
    <g id="Page-1" stroke="none" stroke-width="1" fill="none" fill-rule="evenodd">
        <g id="Artboard" transform="translate(-659.000000, -346.000000)" fill="#FFFFFF">
            <g id="Card-Hover-" transform="translate(634.000000, 248.000000)">
                <g id="icons/tools/ibm-user-link-copy-9" transform="translate(25.000000, 98.000000)">
                    <path d="M0.5,4 L0.5,4 C0.5,5.925 2.075,7.5 4,7.5 C5.925,7.5 7.5,5.925 7.5,4 C7.5,2.075 5.925,0.5 4,0.5 C2.075,0.5 0.5,2.075 0.5,4 Z M6.275,5.925 L2.075,1.725 C2.6,1.25 3.3,1 4,1 C5.65,1 7,2.35 7,4 C7,4.7 6.75,5.4 6.275,5.925 Z M2.05,6.3 C0.8,5.225 0.65,3.325 1.7,2.075 L5.925,6.3 C5.4,6.75 4.7,7 4,7 C3.3,7 2.6,6.75 2.05,6.3 Z" id="exclude-icon"></path>
                </g>
            </g>
        </g>
    </g>
</svg>