<?xml version="1.0" encoding="UTF-8"?>
<svg width="29px" height="70px" viewBox="0 0 29 70" version="1.1" xmlns="http://www.w3.org/2000/svg" xmlns:xlink="http://www.w3.org/1999/xlink">
    <!-- Generator: Sketch 57.1 (83088) - https://sketch.com -->
    <title>Logo</title>
    <desc>Created with Sketch.</desc>
    <defs>
        <linearGradient x1="50%" y1="0%" x2="50%" y2="100%" id="linearGradient-1">
            <stop stop-color="#FFA758" offset="0%"></stop>
            <stop stop-color="#EC856D" offset="100%"></stop>
        </linearGradient>
        <path d="M11.0330216,40.1767921 C14.9394109,40.1767921 21.6621458,31.9484811 21.6621458,20.6165591 C21.6621458,9.28463705 16.8129093,0.0982992061 10.8310729,0.0982992061 C4.84923651,0.0982992061 2.13162821e-14,9.28463705 2.13162821e-14,20.6165591 C2.13162821e-14,31.9484811 7.1266324,40.1767921 11.0330216,40.1767921 Z" id="path-2"></path>
        <path d="M5.9795812,29.0396082 C10.0237712,28.0292739 13.4684467,27.5219109 16.3136077,27.5175193 C19.1587687,27.5131277 22.1022173,28.8034858 25.1439534,31.3885935 L28.9702635,22.5506407 C30.8801085,21.6205491 31.8371057,19.8062356 31.8412551,17.1077001 C31.8453983,14.4091645 29.1183913,13.0039762 23.6602343,12.8921351 C25.4484118,7.62181254 24.1346323,4.66779194 19.7188958,4.03007327 C15.3031593,3.3923546 12.5723231,5.68127121 11.5263872,10.8968231 C8.08274021,9.83264297 5.70985027,10.3911573 4.40771744,12.5723661 C2.62574053,15.557364 3.35794206,18.2716626 6.60432202,20.7152619 L5.9795812,29.0396082 Z" id="path-4"></path>
    </defs>
    <g id="Page-1" stroke="none" stroke-width="1" fill="none" fill-rule="evenodd">
        <g id="Artboard" transform="translate(-45.000000, -40.000000)">
            <g id="Group-4" transform="translate(10.000000, 17.000000)">
                <g id="Logo" transform="translate(51.500000, 52.000000) rotate(-45.000000) translate(-51.500000, -52.000000) translate(16.000000, 15.000000)">
                    <polygon id="Rectangle" fill="url(#linearGradient-1)" transform="translate(13.527889, 60.238692) rotate(45.000000) translate(-13.527889, -60.238692) " points="7.10927991 51.958814 18.8616156 51.9952044 23.6479558 68.5185703 3.40782218 68.4558979"></polygon>
                    <g id="Group" transform="translate(29.491070, 43.598699) rotate(45.000000) translate(-29.491070, -43.598699) translate(17.491070, 21.098699)">
                        <g id="Oval-Copy-3" transform="translate(0.927518, 1.258362)">
                            <mask id="mask-3" fill="white">
                                <use xlink:href="#path-2"></use>
                            </mask>
                            <use id="Mask" fill="#E8E8E8" xlink:href="#path-2"></use>
                            <path d="M10.8310729,42.0198214 L10.8310729,1.74254317 C3.11237726,7.89714394 -0.746970544,14.7704867 -0.746970544,22.3625715 C-0.746970544,29.9546563 3.11237726,36.5070729 10.8310729,42.0198214 Z" fill="#F9FAFB" mask="url(#mask-3)"></path>
                        </g>
                        <path d="M11.8340345,33.3576479 L13.9119869,42.3623608 C14.147387,43.3824566 13.5112655,44.4002372 12.4911696,44.6356374 C12.3513875,44.6678939 12.2083955,44.6841785 12.0649399,44.6841785 C10.975423,44.6841785 10.092195,43.8009505 10.092195,42.7114336 C10.092195,42.5878802 10.1038022,42.4646 10.1268636,42.3432179 L11.8340345,33.3576479 L11.8340345,33.3576479 Z" id="Triangle" fill="#DE3618" transform="translate(12.064940, 39.020913) scale(1, -1) translate(-12.064940, -39.020913) "></path>
                        <path d="M12.2039274,0.179599105 C13.5746714,0.199693033 16.7055923,3.27935066 18.5303644,6.08898772 C19.7468791,7.96207909 20.7100028,9.82621749 21.4197355,11.6814029 L2.10035288,11.9416069 C2.66087767,9.81172399 3.71000724,7.63059068 5.24774159,5.39820698 C7.55434312,2.04963144 10.8331833,0.159505177 12.2039274,0.179599105 Z" id="Triangle-Copy" fill="#DE3618"></path>
                        <path d="M21.5011605,30.7392992 C22.1747442,32.5201114 22.7220441,34.0456214 23.1430599,35.3158294 C23.7745838,37.2211412 23.6599964,41.5610663 23.1430599,42.0277111 C22.6261235,42.4943558 22.2856579,38.5478552 21.0298156,37.2234805 C20.1925873,36.3405641 19.5967721,35.7046804 19.24237,35.3158294 L21.5011605,30.7392992 Z" id="Path-4" fill="#DE3618"></path>
                        <path d="M2.46276485,30.7392992 C3.12300171,32.5141904 3.65945692,34.0346284 4.07213047,35.300613 C4.6911408,37.19959 4.74460003,41.5630775 4.23790657,42.0281707 C3.73121311,42.4932639 3.23171765,38.5218929 2.00075953,37.2019216 C1.18012078,36.3219407 0.596111522,35.6881712 0.24873175,35.300613 L2.46276485,30.7392992 Z" id="Path-4-Copy" fill="#DE3618" transform="translate(2.414946, 36.402564) scale(-1, 1) translate(-2.414946, -36.402564) "></path>
                        <ellipse id="Oval-Copy" fill="#4F4A44" cx="11.9117654" cy="19.4603082" rx="4.76567207" ry="5.22762951"></ellipse>
                        <ellipse id="Oval-Copy-2" fill="#4F4A44" cx="12.0649399" cy="28.5475184" rx="1.94959312" ry="2.17817896"></ellipse>
                    </g>
                    <g id="Group-2" transform="translate(45.046402, 26.173852) rotate(46.000000) translate(-45.046402, -26.173852) translate(26.546402, 8.173852)">
                        <g id="Rectangle" transform="translate(0.025938, 0.253758)">
                            <mask id="mask-5" fill="white">
                                <use xlink:href="#path-4"></use>
                            </mask>
                            <use id="Mask" fill="#FFFFFF" transform="translate(17.650856, 17.657223) rotate(-17.000000) translate(-17.650856, -17.657223) " xlink:href="#path-4"></use>
                            <polygon fill="#D8D8D8" opacity="0.283203125" mask="url(#mask-5)" transform="translate(27.309315, 14.820554) rotate(-91.000000) translate(-27.309315, -14.820554) " points="10.3187749 6.80391814 44.2983099 6.80717503 44.2998549 22.8371899 10.3203199 22.833933"></polygon>
                        </g>
                    </g>
                </g>
            </g>
        </g>
    </g>
</svg>