<?xml version="1.0" encoding="UTF-8"?>
<svg width="22px" height="17px" viewBox="0 0 22 17" version="1.1" xmlns="http://www.w3.org/2000/svg" xmlns:xlink="http://www.w3.org/1999/xlink">
    <!-- Generator: Sketch 57.1 (83088) - https://sketch.com -->
    <title>Orders-icon</title>
    <desc>Created with Sketch.</desc>
    <g id="Page-1" stroke="none" stroke-width="1" fill="none" fill-rule="evenodd">
        <g id="Artboard" transform="translate(-36.000000, -467.000000)" fill="#FFFFFF">
            <g id="icons/tools/ibm-user-link-copy-6" transform="translate(36.000000, 467.000000)">
                <path d="M21.35,8 L16.1,0.8 C15.95,0.65 15.725,0.5 15.5,0.5 L1.25,0.5 C0.8,0.5 0.5,0.8 0.5,1.25 L0.5,14 C0.5,14.45 0.8,14.75 1.25,14.75 L2.825,14.75 C3.125,16.025 4.325,17 5.75,17 C7.175,17 8.3,16.025 8.675,14.75 L12.65,14.75 C12.95,16.025 14.15,17 15.575,17 C17,17 18.125,16.025 18.5,14.75 L20.75,14.75 C21.2,14.75 21.5,14.45 21.5,14 L21.5,8.45 C21.5,8.3 21.425,8.15 21.35,8 Z M18.95,7.25 L14,7.25 L14,2 L15.125,2 L18.95,7.25 Z M5.75,15.5 C4.925,15.5 4.25,14.825 4.25,14 C4.25,13.175 4.925,12.5 5.75,12.5 C6.575,12.5 7.25,13.175 7.25,14 C7.25,14.825 6.575,15.5 5.75,15.5 Z M15.5,15.5 C14.675,15.5 14,14.825 14,14 C14,13.175 14.675,12.5 15.5,12.5 C16.325,12.5 17,13.175 17,14 C17,14.825 16.325,15.5 15.5,15.5 Z M18.425,13.25 C18.125,11.975 16.925,11 15.5,11 C14.075,11 12.95,11.975 12.575,13.25 L8.6,13.25 C8.3,11.975 7.1,11 5.675,11 C4.25,11 3.125,11.975 2.75,13.25 L2,13.25 L2,2 L12.5,2 L12.5,8.75 L20,8.75 L20,13.25 L18.425,13.25 Z" id="Orders-icon"></path>
            </g>
        </g>
    </g>
</svg>