<?xml version="1.0" encoding="UTF-8"?>
<svg width="22px" height="20px" viewBox="0 0 22 20" version="1.1" xmlns="http://www.w3.org/2000/svg" xmlns:xlink="http://www.w3.org/1999/xlink">
    <!-- Generator: Sketch 57.1 (83088) - https://sketch.com -->
    <title>shopping-cart</title>
    <desc>Created with Sketch.</desc>
    <g id="Page-1" stroke="none" stroke-width="1" fill="none" fill-rule="evenodd">
        <g id="Artboard" transform="translate(-1291.000000, -25.000000)" fill="#FFFFFF">
            <g id="Top-bar-icons" transform="translate(1290.000000, 22.000000)">
                <g id="icons/tools/ibm-user-link-copy-5" transform="translate(1.000000, 3.000000)">
                    <path d="M20,6.25 L15.5,6.25 L15.5,4.75 C15.5,2.275 13.475,0.25 11,0.25 C8.525,0.25 6.5,2.275 6.5,4.75 L6.5,6.25 L2,6.25 C1.175,6.25 0.5,6.925 0.5,7.75 L0.5,16.75 C0.5,18.4 1.85,19.75 3.5,19.75 L18.5,19.75 C20.15,19.75 21.5,18.4 21.5,16.75 L21.5,7.75 C21.5,6.925 20.825,6.25 20,6.25 Z M8,4.75 C8,3.1 9.35,1.75 11,1.75 C12.65,1.75 14,3.1 14,4.75 L14,6.25 L8,6.25 L8,4.75 Z M20,7.75 L20,13.75 L2,13.75 L2,7.75 L20,7.75 Z M18.5,18.25 L3.5,18.25 C2.675,18.25 2,17.575 2,16.75 L2,15.25 L20,15.25 L20,16.75 C20,17.575 19.325,18.25 18.5,18.25 Z" id="shopping-cart"></path>
                </g>
            </g>
        </g>
    </g>
</svg>